<?xml version="1.0" standalone="no"?>
<svg xmlns="http://www.w3.org/2000/svg" viewBox="0 0 129 41" width="129" height="41"><g fill="#000000" color="#000000" transform="translate(42.368 0) scale(0.8148149) "><svg width="54.0" height="19.0" x="0.0" y="0.0" viewBox="0 0 54 19"><path fill="currentColor" fill-rule="nonzero" d="M48.8 5.28c-.26.53-.04 1.18.49 1.44.43.21.94.11 1.26-.23.58-.49-.13-1.11-.13-1.11.2-.39 1.75-.39 1.69 1.37-.06 1.76-2.6 2.21-5.58 1.36C43.55 7.26 38.36 1.68 34 .3a6.572 6.572 0 0 0-6.81 1.81A6.588 6.588 0 0 0 20.38.32c-4.35 1.36-9.55 6.94-12.53 7.81-2.98.87-5.52.39-5.58-1.36-.06-1.75 1.5-1.78 1.69-1.35 0 0-.71.62-.13 1.11.4.43 1.08.46 1.52.06.35-.32.44-.83.23-1.26-.51-1.2-4.22-1.52-4.67 2.14-.45 3.66 3.83 10.97 11.62 11.17 5.95.18 10.83-.72 14.51-7.92.06-.11.11-.21.16-.33.05.11.1.21.16.33 3.67 7.2 8.56 8.1 14.51 7.92 7.79-.2 12.08-7.5 11.62-11.17-.47-3.69-4.18-3.37-4.69-2.19z"></path></svg></g><path fill="#0019ff" fill-rule="nonzero" d="M6.31 0.17Q9.12 0.17 10.44 1.48Q11.76 2.78 11.76 4.82L11.76 4.82Q11.76 6.26 11.14 7.52Q10.51 8.78 9.28 9.58Q8.04 10.37 6.31 10.37L6.31 10.37Q5.30 10.37 4.63 10.10L4.63 10.10Q4.58 9.82 4.58 9.65L4.58 9.65Q4.58 9.36 4.66 9.12L4.66 9.12Q5.26 9.26 5.93 9.26L5.93 9.26Q9.31 9.26 9.31 5.52L9.31 5.52Q9.31 3.50 8.33 2.36Q7.34 1.22 5.26 1.22L5.26 1.22Q4.73 1.22 4.03 1.37L4.03 1.37L4.03 12.91Q4.03 13.94 4.25 14.48Q4.46 15.02 4.91 15.23Q5.35 15.43 6.17 15.48L6.17 15.48Q6.29 15.82 6.29 16.51L6.29 16.51Q5.18 16.44 3.26 16.44L3.26 16.44Q0.94 16.44 0 16.51L0 16.51Q0 15.82 0.12 15.48L0.12 15.48Q1.08 15.43 1.43 15.01Q1.78 14.59 1.78 13.39L1.78 13.39L1.78 3.26Q1.78 2.06 1.43 1.64Q1.08 1.22 0.12 1.18L0.12 1.18Q0 0.84 0 0.14L0 0.14Q1.25 0.22 3.26 0.22L3.26 0.22L6.31 0.17ZM24.26 13.63Q24.91 14.59 25.60 14.99Q26.28 15.38 27.29 15.43L27.29 15.43Q27.29 16.13 27.19 16.44L27.19 16.44Q25.15 16.44 23.74 16.61L23.74 16.61Q23.57 16.32 23.09 15.60L23.09 15.60L22.01 13.85Q21.12 12.36 19.66 11.42L19.66 11.42L18.89 11.45L18.19 11.42L18.19 13.61Q18.19 14.40 18.31 14.78Q18.43 15.17 18.71 15.31Q18.98 15.46 19.56 15.48L19.56 15.48Q19.66 15.77 19.66 16.49L19.66 16.49Q18.77 16.44 17.04 16.44L17.04 16.44Q15.77 16.44 14.42 16.49L14.42 16.49Q14.42 15.82 14.54 15.48L14.54 15.48Q15.14 15.43 15.44 15.29Q15.74 15.14 15.86 14.78Q15.98 14.42 15.98 13.70L15.98 13.70L15.98 7.20Q15.98 6.17 15.70 5.83Q15.41 5.50 14.54 5.45L14.54 5.45Q14.42 5.09 14.42 4.39L14.42 4.39Q15.34 4.44 17.06 4.44L17.06 4.44L18.79 4.42Q20.04 4.37 20.69 4.37L20.69 4.37Q22.99 4.37 24.17 5.26Q25.34 6.14 25.34 7.54L25.34 7.54Q25.34 8.93 24.46 9.83Q23.57 10.73 21.98 11.04L21.98 11.04Q22.58 11.40 22.98 11.87Q23.38 12.34 24.26 13.63L24.26 13.63ZM19.10 10.25Q20.83 10.25 21.94 9.64Q23.04 9.02 23.04 7.85L23.04 7.85Q23.04 5.40 19.68 5.40L19.68 5.40Q18.91 5.40 18.19 5.54L18.19 5.54L18.19 10.18Q18.70 10.25 19.10 10.25L19.10 10.25ZM36.46 16.66Q34.39 16.66 32.81 15.89Q31.22 15.12 30.35 13.73Q29.47 12.34 29.47 10.49L29.47 10.49Q29.47 8.66 30.35 7.25Q31.22 5.83 32.82 5.05Q34.42 4.27 36.50 4.27L36.50 4.27Q38.57 4.27 40.15 5.04Q41.74 5.81 42.61 7.21Q43.49 8.62 43.49 10.44L43.49 10.44Q43.49 12.29 42.61 13.69Q41.74 15.10 40.14 15.88Q38.54 16.66 36.46 16.66L36.46 16.66ZM36.79 15.55Q38.74 15.55 39.88 14.26Q41.02 12.96 41.02 10.80L41.02 10.80Q41.02 9.24 40.39 8.00Q39.77 6.77 38.65 6.07Q37.54 5.38 36.14 5.38L36.14 5.38Q34.20 5.38 33.07 6.68Q31.94 7.99 31.94 10.13L31.94 10.13Q31.94 11.74 32.57 12.97Q33.19 14.21 34.30 14.88Q35.40 15.55 36.79 15.55L36.79 15.55ZM51.31 16.66Q49.92 16.66 48.82 16.28Q47.71 15.91 46.44 15.12L46.44 15.12Q46.66 13.78 46.66 11.71L46.66 11.71Q47.21 11.57 47.95 11.57L47.95 11.57Q48.05 13.49 48.92 14.50Q49.80 15.50 51.65 15.50L51.65 15.50Q53.21 15.50 53.96 14.82Q54.72 14.14 54.72 13.01L54.72 13.01Q54.72 12.07 54.24 11.42Q53.76 10.78 53.06 10.36Q52.37 9.94 51.12 9.36L51.12 9.36Q49.68 8.66 48.82 8.11Q47.95 7.56 47.34 6.64Q46.73 5.71 46.73 4.32L46.73 4.32Q46.73 2.30 48.02 1.15Q49.32 0 51.55 0L51.55 0Q52.73 0 53.81 0.30Q54.89 0.60 55.56 1.06L55.56 1.06Q55.56 3.19 55.70 4.22L55.70 4.22Q55.18 4.44 54.36 4.44L54.36 4.44Q54.02 2.47 53.35 1.76Q52.68 1.06 51.53 1.06L51.53 1.06Q50.26 1.06 49.54 1.68Q48.82 2.30 48.82 3.43L48.82 3.43Q48.82 4.37 49.31 5.04Q49.80 5.71 50.51 6.14Q51.22 6.58 52.46 7.20L52.46 7.20Q53.88 7.87 54.73 8.42Q55.58 8.98 56.18 9.86Q56.78 10.75 56.78 12.05L56.78 12.05Q56.78 13.30 56.20 14.34Q55.61 15.38 54.37 16.02Q53.14 16.66 51.31 16.66L51.31 16.66ZM70.54 4.39Q70.46 5.69 70.70 7.51L70.70 7.51Q70.20 7.73 69.53 7.73L69.53 7.73Q69.48 6.58 68.92 6.02Q68.35 5.47 67.15 5.47L67.15 5.47L66.10 5.47L66.10 13.70Q66.10 14.45 66.23 14.80Q66.36 15.14 66.71 15.29Q67.06 15.43 67.78 15.48L67.78 15.48Q67.90 15.77 67.90 16.49L67.90 16.49Q66.12 16.44 64.99 16.44L64.99 16.44Q63.60 16.44 62.02 16.49L62.02 16.49Q62.02 15.77 62.14 15.48L62.14 15.48Q62.86 15.43 63.23 15.29Q63.60 15.14 63.74 14.78Q63.89 14.42 63.89 13.70L63.89 13.70L63.89 5.47L62.90 5.47Q61.94 5.47 61.43 5.72Q60.91 5.98 60.67 6.43Q60.43 6.89 60.26 7.73L60.26 7.73Q59.50 7.73 59.14 7.51L59.14 7.51Q59.50 5.88 59.50 4.39L59.50 4.39Q60.74 4.44 64.99 4.44L64.99 4.44Q69.31 4.44 70.54 4.39L70.54 4.39ZM85.15 15.41Q85.27 15.77 85.27 16.49L85.27 16.49Q84.31 16.44 82.80 16.44L82.80 16.44Q81.22 16.44 80.26 16.49L80.26 16.49Q80.26 15.74 80.40 15.41L80.40 15.41Q80.95 15.34 81.18 15.20Q81.41 15.07 81.41 14.81L81.41 14.81Q81.41 14.59 81.17 14.06L81.17 14.06L80.69 13.03Q77.23 13.03 75.24 13.15L75.24 13.15L74.98 13.78Q74.74 14.33 74.74 14.64L74.74 14.64Q74.74 15.31 75.72 15.41L75.72 15.41Q75.86 15.84 75.86 16.49L75.86 16.49Q74.95 16.44 73.87 16.44L73.87 16.44Q72.94 16.44 72.17 16.49L72.17 16.49Q72.17 15.91 72.31 15.41L72.31 15.41Q72.84 15.31 73.13 14.96Q73.42 14.62 73.90 13.56L73.90 13.56L78.02 4.42Q78.48 4.32 78.98 4.32L78.98 4.32L83.40 13.49Q83.93 14.59 84.30 14.98Q84.67 15.36 85.15 15.41L85.15 15.41ZM75.72 12.05L80.21 12.05L78.77 9.02Q78.14 7.75 77.90 7.01L77.90 7.01Q77.71 7.61 77.44 8.20Q77.16 8.78 77.09 8.93L77.09 8.93L75.72 12.05ZM94.18 16.61Q92.11 16.61 90.53 15.82Q88.94 15.02 88.07 13.60Q87.19 12.17 87.19 10.32L87.19 10.32Q87.19 8.40 88.22 7.04Q89.26 5.69 90.94 4.99Q92.62 4.30 94.54 4.30L94.54 4.30Q96 4.30 97.33 4.52Q98.66 4.75 99.58 5.16L99.58 5.16Q99.36 6.07 99.36 7.92L99.36 7.92Q98.93 8.11 98.14 8.11L98.14 8.11Q98.06 6.60 97.15 5.98Q96.24 5.35 94.68 5.35L94.68 5.35Q93.02 5.35 91.88 5.98Q90.74 6.60 90.19 7.64Q89.64 8.69 89.64 9.91L89.64 9.91Q89.64 12.36 90.92 13.90Q92.21 15.43 94.58 15.43L94.58 15.43Q95.33 15.43 95.74 15.41Q96.14 15.38 96.58 15.26L96.58 15.26Q96.96 15.17 97.13 14.89Q97.30 14.62 97.30 13.97L97.30 13.97L97.30 13.22Q97.30 12.53 97.18 12.23Q97.06 11.93 96.70 11.82Q96.34 11.71 95.52 11.69L95.52 11.69Q95.38 11.26 95.38 10.58L95.38 10.58Q95.93 10.63 97.99 10.63L97.99 10.63Q100.03 10.63 100.51 10.58L100.51 10.58Q100.51 11.26 100.39 11.69L100.39 11.69Q99.94 11.71 99.74 11.82Q99.55 11.93 99.48 12.20Q99.41 12.48 99.41 13.08L99.41 13.08L99.41 13.68Q99.41 14.23 99.47 14.56Q99.53 14.88 99.70 15.24L99.70 15.24Q98.74 15.86 97.31 16.24Q95.88 16.61 94.18 16.61L94.18 16.61ZM114.17 13.03Q114.82 13.15 115.22 13.56L115.22 13.56Q114.79 14.69 114.58 16.46L114.58 16.46L109.94 16.44Q106.49 16.44 104.38 16.49L104.38 16.49Q104.38 15.74 104.50 15.41L104.50 15.41Q105.10 15.36 105.40 15.22Q105.70 15.07 105.82 14.69Q105.94 14.30 105.94 13.54L105.94 13.54L105.94 7.22Q105.94 6.53 105.80 6.17Q105.67 5.81 105.37 5.66Q105.07 5.52 104.50 5.47L104.50 5.47Q104.38 5.11 104.38 4.39L104.38 4.39Q106.10 4.44 108.14 4.44L108.14 4.44Q112.56 4.44 114.05 4.39L114.05 4.39Q114.31 6.65 114.50 7.37L114.50 7.37Q114.10 7.63 113.42 7.63L113.42 7.63Q113.33 6.62 112.60 6.05Q111.86 5.47 110.02 5.47L110.02 5.47L108.14 5.47L108.14 9.89L109.34 9.89Q110.62 9.89 111.11 9.60Q111.60 9.31 111.62 8.54L111.62 8.54Q112.15 8.38 112.73 8.38L112.73 8.38Q112.68 8.98 112.68 10.39L112.68 10.39Q112.68 11.93 112.73 12.48L112.73 12.48Q112.08 12.48 111.67 12.34L111.67 12.34Q111.60 11.54 111.11 11.26Q110.62 10.97 109.34 10.97L109.34 10.97L108.14 10.97L108.14 13.49Q108.14 14.26 108.30 14.65Q108.46 15.05 108.85 15.20Q109.25 15.36 110.04 15.36L110.04 15.36L110.18 15.36Q111.58 15.36 112.33 15.12Q113.09 14.88 113.46 14.41Q113.83 13.94 114.17 13.03L114.17 13.03ZM123.50 16.61Q122.18 16.61 121.12 16.34Q120.05 16.08 118.80 15.55L118.80 15.55Q119.06 13.94 118.99 12.77L118.99 12.77Q119.52 12.60 120.29 12.60L120.29 12.60Q120.34 14.09 121.24 14.76Q122.14 15.43 123.77 15.43L123.77 15.43Q125.16 15.43 125.96 15.00Q126.77 14.57 126.77 13.85L126.77 13.85Q126.77 13.34 126.37 12.97Q125.98 12.60 125.41 12.35Q124.85 12.10 123.77 11.71L123.77 11.71Q122.28 11.21 121.38 10.76Q120.48 10.32 119.82 9.54Q119.16 8.76 119.16 7.58L119.16 7.58Q119.16 5.98 120.37 5.14Q121.58 4.30 123.70 4.30L123.70 4.30Q124.82 4.30 125.94 4.51Q127.06 4.73 127.68 5.06L127.68 5.06Q127.66 5.33 127.66 5.88L127.66 5.88Q127.66 6.96 127.80 7.58L127.80 7.58Q127.30 7.85 126.48 7.85L126.48 7.85Q126.14 6.48 125.39 5.94Q124.63 5.40 123.53 5.40L123.53 5.40Q122.47 5.40 121.81 5.76Q121.15 6.12 121.15 6.82L121.15 6.82Q121.15 7.61 121.92 8.09Q122.69 8.57 124.32 9.14L124.32 9.14Q125.71 9.62 126.60 10.06Q127.49 10.49 128.11 11.22Q128.74 11.95 128.74 13.06L128.74 13.06Q128.74 14.64 127.44 15.62Q126.14 16.61 123.50 16.61L123.50 16.61Z" transform="translate(0, 23.482)"></path></svg>