<?xml version="1.0" standalone="no"?>
<svg xmlns="http://www.w3.org/2000/svg" viewBox="0 0 136.296 27.54" width="136.296" height="27.54"><g fill="#4ad0ff" color="#4ad0ff" transform="translate(0, 0) scale(0.58)"><svg width="50.0" height="42.0" x="0.0" y="0.0" viewBox="0 0 50 42"><path fill="currentColor" fill-rule="nonzero" d="M21.3 13.56l5.81 12.46-10.95-2.3-5.81-12.46 10.95 2.3zm20.86-9.73l5.81 12.46-10.95-2.3-5.81-12.46 10.95 2.3zm-8.91 36.83L8.44 36.19 16 24.99l12.1 2.54c.05.01.09.01.13.01.09 0 .18-.02.27-.06.01 0 .01-.01.01-.01.03-.01.05-.04.08-.06.03-.02.05-.05.08-.07.03-.03.07-.05.09-.08l8.11-12.01 11.19 2.35-14.81 23.06zm16.45-23.3c.01-.02.02-.03.03-.05.01-.05-.02-.08-.03-.13 0-.07.01-.13-.02-.2-.01-.02.01-.05-.01-.07L43.19 3c-.01-.02-.03-.02-.03-.03-.04-.07-.11-.11-.18-.16-.07-.05-.12-.11-.2-.14-.02-.01-.02-.02-.04-.03L30.22.01c-.04-.01-.08.03-.13.03-.07 0-.13 0-.19.02-.03.01-.06-.01-.08 0-.01.01-.02.03-.03.03-.05.03-.08.07-.12.12-.03.03-.08.03-.11.07l-8.11 12.01-12.1-2.54c-.05-.01-.08.02-.13.02-.07 0-.12 0-.19.02-.03.01-.06-.01-.08.01-.02.01-.02.03-.03.03-.05.03-.08.07-.12.12-.03.03-.08.03-.11.07L.34 22.37c-.02.02 0 .05-.02.08-.04.08-.04.15-.05.23-.01.08-.02.16.01.24.02.03 0 .05.01.08l6.49 13.91c.01.02.03.03.05.05.02.04.04.06.07.09.03.03.05.06.08.08.01.01.01.03.02.04 0 0 .01 0 .01.01.05.03.11.04.17.05.03.01.04.04.06.04l26.2 4.72a.61.61 0 0 0 .48-.12c.03-.02.05-.05.08-.07.03-.03.07-.05.1-.09l15.54-24.18c.02-.02 0-.05.01-.07.02-.04.03-.07.05-.1z"></path></svg></g><line x1="41" y1="1" x2="41" y2="23.36" stroke="#0019ff" stroke-linecap="round"></line><path fill="#0019ff" fill-rule="nonzero" d="M1.66 19.37Q1.01 19.37 0.50 19.02Q0 18.67 0 18.17L0 18.17Q0 17.81 0.34 16.85L0.34 16.85Q2.16 11.18 3.36 7.82Q4.56 4.46 6.24 0.65L6.24 0.65Q4.92 0.91 3.46 1.73L3.46 1.73Q2.98 1.97 2.90 1.97L2.90 1.97Q2.74 1.97 2.45 1.73Q2.16 1.49 2.16 1.32L2.16 1.32Q5.23 0 7.46 0L7.46 0Q8.95 0 10.38 0.54Q11.81 1.08 12.72 2.12Q13.63 3.17 13.63 4.63L13.63 4.63Q13.63 6.89 11.86 8.12Q10.08 9.36 7.99 9.77Q5.90 10.18 4.49 10.18L4.49 10.18L4.25 10.18Q4.13 10.58 2.81 15.31L2.81 15.31Q1.97 18.36 1.66 19.37L1.66 19.37ZM4.34 9.79Q6.24 9.70 7.99 9.05Q9.74 8.40 10.88 7.18Q12.02 5.95 12.02 4.22L12.02 4.22Q12.02 2.40 10.78 1.46Q9.53 0.53 7.68 0.50L7.68 0.50Q6.22 3.41 4.34 9.79L4.34 9.79ZM15.89 17.90Q15.07 17.90 14.60 17.47Q14.14 17.04 14.14 16.34L14.14 16.34Q14.14 15.53 14.83 13.99L14.83 13.99Q15.14 13.20 15.30 12.73Q15.46 12.26 15.46 11.86L15.46 11.86Q15.46 11.26 15.18 10.91Q14.90 10.56 14.57 10.33Q14.23 10.10 14.11 10.03L14.11 10.03Q13.58 11.38 12.98 12.66Q12.38 13.94 11.98 14.64L11.98 14.64L11.76 14.23Q12.91 12 13.70 9.67L13.70 9.67Q13.46 9.43 13.46 9.10L13.46 9.10Q13.46 8.66 13.64 8.28Q13.82 7.90 14.08 7.68Q14.33 7.46 14.47 7.46L14.47 7.46Q14.81 7.46 14.81 8.04L14.81 8.04Q14.81 8.14 14.69 8.47Q14.57 8.81 14.54 8.93L14.54 8.93Q14.54 9.17 14.75 9.37Q14.95 9.58 15.41 9.89L15.41 9.89Q16.15 10.42 16.57 10.93Q16.99 11.45 16.99 12.26L16.99 12.26Q16.99 12.79 16.82 13.31Q16.66 13.82 16.32 14.66L16.32 14.66Q15.79 15.82 15.79 16.32L15.79 16.32Q15.79 17.04 16.51 17.04L16.51 17.04Q17.23 17.04 18.06 16.46Q18.89 15.89 19.58 15.04Q20.28 14.18 20.59 13.46L20.59 13.46L20.90 13.70Q20.16 15.36 18.74 16.63Q17.33 17.90 15.89 17.90L15.89 17.90ZM21.74 18.05Q20.76 18.05 20.30 17.45Q19.85 16.85 19.85 15.86L19.85 15.86Q19.85 14.88 20.26 13.80Q20.66 12.72 21.31 12Q21.96 11.28 22.61 11.28L22.61 11.28Q22.82 11.28 23.11 11.40L23.11 11.40Q22.82 11.64 22.42 12.46Q22.01 13.27 21.71 14.20Q21.41 15.12 21.41 15.70L21.41 15.70Q21.41 17.06 22.27 17.06L22.27 17.06Q22.78 17.06 23.47 16.54Q24.17 16.01 24.84 15.14L24.84 15.14Q24.17 14.59 23.80 13.70Q23.42 12.82 23.42 11.86L23.42 11.86Q23.42 10.61 24.06 9.72Q24.70 8.83 25.78 8.83L25.78 8.83Q26.69 8.83 27.06 9.32Q27.43 9.82 27.43 10.68L27.43 10.68Q27.43 11.59 26.99 12.73Q26.54 13.87 25.82 14.95L25.82 14.95Q26.26 15.19 26.74 15.19L26.74 15.19Q27.43 15.19 28.18 14.77Q28.92 14.35 29.30 13.46L29.30 13.46L29.59 13.70Q29.14 14.76 28.30 15.26Q27.46 15.77 26.57 15.77L26.57 15.77Q25.92 15.77 25.42 15.53L25.42 15.53Q24.55 16.66 23.58 17.35Q22.61 18.05 21.74 18.05L21.74 18.05ZM25.27 14.52Q25.90 13.58 26.28 12.61Q26.66 11.64 26.66 10.82L26.66 10.82Q26.66 10.15 26.46 9.82Q26.26 9.48 25.94 9.48L25.94 9.48Q25.61 9.48 25.26 9.80Q24.91 10.13 24.68 10.69Q24.46 11.26 24.46 11.93L24.46 11.93Q24.46 12.67 24.66 13.36Q24.86 14.04 25.27 14.52L25.27 14.52ZM33.72 19.37Q32.38 19.37 31.22 18.89Q30.07 18.41 29.39 17.44Q28.70 16.46 28.70 15.07L28.70 15.07Q28.70 13.37 29.64 12.61Q30.58 11.86 31.78 11.86L31.78 11.86Q31.13 12.55 30.79 13.39Q30.46 14.23 30.46 15.07L30.46 15.07Q30.46 16.51 31.40 17.47Q32.35 18.43 34.13 18.43L34.13 18.43Q35.26 18.43 36.28 18.02Q37.30 17.62 37.94 16.82Q38.59 16.03 38.59 14.93L38.59 14.93Q38.59 13.97 38.11 13.24Q37.63 12.50 36.91 11.99Q36.19 11.47 34.99 10.75L34.99 10.75Q33.77 10.03 33.04 9.49Q32.30 8.95 31.80 8.18Q31.30 7.42 31.30 6.41L31.30 6.41Q31.30 5.02 32.16 3.52Q33.02 2.02 34.60 1.01Q36.17 0 38.14 0L38.14 0Q39.46 0 40.06 0.65Q40.66 1.30 40.66 2.40L40.66 2.40Q40.66 3.60 40.08 5.09Q39.50 6.58 38.81 7.68L38.81 7.68Q38.02 7.51 38.02 6.65L38.02 6.65Q38.02 6.19 38.20 5.62Q38.38 5.04 38.71 4.18L38.71 4.18Q39.07 3.24 39.25 2.65Q39.43 2.06 39.43 1.61L39.43 1.61Q39.43 1.10 39.13 0.84Q38.83 0.58 38.09 0.58L38.09 0.58Q36.67 0.58 35.46 1.45Q34.25 2.33 33.53 3.58Q32.81 4.82 32.81 5.86L32.81 5.86Q32.81 6.62 33.23 7.22Q33.65 7.82 34.27 8.27Q34.90 8.71 35.98 9.31L35.98 9.31Q37.27 10.06 38.06 10.64Q38.86 11.23 39.42 12.13Q39.98 13.03 39.98 14.26L39.98 14.26Q39.98 15.84 39.06 16.99Q38.14 18.14 36.70 18.76Q35.26 19.37 33.72 19.37L33.72 19.37ZM43.75 18.38Q41.62 18.38 41.62 16.01L41.62 16.01Q41.62 14.98 41.99 13.45Q42.36 11.93 43.01 10.22L43.01 10.22Q42.43 10.13 42.14 10.03L42.14 10.03L42.14 9.60Q43.01 9.70 43.20 9.70L43.20 9.70Q44.26 6.96 45.47 4.96Q46.68 2.95 47.38 2.95L47.38 2.95Q47.57 2.95 47.72 3.10Q47.88 3.24 47.88 3.48L47.88 3.48Q47.88 3.79 47.58 4.39Q47.28 4.99 46.56 6.24L46.56 6.24Q46.44 6.48 45.82 7.57Q45.19 8.66 44.69 9.77L44.69 9.77L45.58 9.77Q47.57 9.77 49.01 9.62L49.01 9.62L49.01 10.06Q46.39 10.34 44.78 10.34L44.78 10.34L44.42 10.34Q43.10 13.37 43.10 15.58L43.10 15.58Q43.10 16.61 43.42 17.05Q43.73 17.50 44.45 17.50L44.45 17.50Q45.67 17.50 46.87 16.40Q48.07 15.31 49.01 13.39L49.01 13.39L49.32 13.63Q48.43 15.72 46.92 17.05Q45.41 18.38 43.75 18.38L43.75 18.38ZM49.70 18.41Q48.91 18.41 48.42 17.89Q47.93 17.38 47.93 16.42L47.93 16.42Q47.93 15 48.95 13.25Q49.97 11.50 51.53 10.27Q53.09 9.05 54.58 9.05L54.58 9.05Q55.51 9.05 56.14 9.55Q56.76 10.06 56.76 10.85L56.76 10.85Q56.76 11.40 56.45 11.64Q56.14 11.88 55.58 11.88L55.58 11.88Q55.70 11.45 55.70 11.04L55.70 11.04Q55.70 10.44 55.42 10.07Q55.13 9.70 54.53 9.70L54.53 9.70Q53.47 9.70 52.31 10.87Q51.14 12.05 50.36 13.68Q49.58 15.31 49.58 16.49L49.58 16.49Q49.58 17.42 50.23 17.42L50.23 17.42Q51.19 17.42 52.49 15.90Q53.78 14.38 55.27 12.19L55.27 12.19Q55.58 12.24 55.91 12.40Q56.23 12.55 56.23 12.79L56.23 12.79Q56.23 12.98 56.00 13.40Q55.78 13.82 55.73 13.90L55.73 13.90Q55.32 14.59 55.08 15.13Q54.84 15.67 54.84 16.13L54.84 16.13Q54.84 16.54 55.04 16.86Q55.25 17.18 55.66 17.18L55.66 17.18Q56.35 17.18 57.41 16.19Q58.46 15.19 59.50 13.39L59.50 13.39L59.74 13.63Q59.23 14.90 58.44 15.90Q57.65 16.90 56.74 17.45Q55.82 18 54.98 18L54.98 18Q54.14 18 53.70 17.51Q53.26 17.02 53.26 16.32L53.26 16.32Q53.26 16.01 53.33 15.62L53.33 15.62Q52.25 17.06 51.40 17.74Q50.54 18.41 49.70 18.41L49.70 18.41ZM59.93 24Q59.35 24 58.94 23.65Q58.54 23.30 58.54 22.61L58.54 22.61Q58.54 21.72 59.23 20.96Q59.93 20.21 60.83 19.67Q61.73 19.13 63.22 18.38L63.22 18.38Q63.89 16.66 64.44 14.42L64.44 14.42Q62.30 17.50 60.53 17.50L60.53 17.50Q59.69 17.50 59.21 16.86Q58.73 16.22 58.73 15.17L58.73 15.17Q58.73 13.58 59.75 12.14Q60.77 10.70 62.27 9.83Q63.77 8.95 65.09 8.95L65.09 8.95Q65.74 8.95 66.06 9.17Q66.38 9.38 66.38 9.72L66.38 9.72Q66.38 9.91 66.28 10.04Q66.17 10.18 66.10 10.20L66.10 10.20Q65.86 9.84 65.14 9.84L65.14 9.84Q63.94 9.84 62.82 10.75Q61.70 11.66 61.01 12.96Q60.31 14.26 60.31 15.29L60.31 15.29Q60.31 15.86 60.54 16.16Q60.77 16.46 61.15 16.46L61.15 16.46Q61.80 16.46 62.77 15.58Q63.74 14.69 64.70 13.30L64.70 13.30L64.99 12.02Q65.09 11.57 65.39 11.18Q65.69 10.80 66.22 10.80L66.22 10.80Q66.43 10.80 66.72 10.87L66.72 10.87Q66.72 11.52 66.19 13.48Q65.66 15.43 64.87 17.45L64.87 17.45Q66.12 16.85 67.19 15.78Q68.26 14.71 68.78 13.39L68.78 13.39L69.10 13.63Q68.59 15.10 67.28 16.30Q65.98 17.50 64.61 18.14L64.61 18.14Q63.48 20.88 62.33 22.44Q61.18 24 59.93 24L59.93 24ZM59.86 23.23Q60.41 23.23 61.24 22.19Q62.06 21.14 62.95 19.03L62.95 19.03Q61.20 19.92 60.24 20.69Q59.28 21.46 59.28 22.39L59.28 22.39Q59.28 22.78 59.44 23.00Q59.59 23.23 59.86 23.23L59.86 23.23ZM70.94 18.34Q69.53 18.34 68.77 17.56Q68.02 16.78 68.02 15.55L68.02 15.55Q68.02 14.14 68.95 12.50Q69.89 10.87 71.32 9.76Q72.74 8.64 74.11 8.64L74.11 8.64Q75.60 8.64 75.60 10.10L75.60 10.10Q75.60 11.28 74.71 12.30Q73.82 13.32 72.43 13.97Q71.04 14.62 69.65 14.76L69.65 14.76Q69.55 15.17 69.55 15.62L69.55 15.62Q69.55 16.49 69.98 17.06Q70.42 17.64 71.45 17.64L71.45 17.64Q72.91 17.64 74.40 16.42Q75.89 15.19 76.82 13.39L76.82 13.39L77.11 13.61Q76.15 15.74 74.45 17.04Q72.74 18.34 70.94 18.34L70.94 18.34ZM69.77 14.30Q70.78 13.94 71.88 13.30Q72.98 12.65 73.76 11.77Q74.54 10.90 74.54 9.94L74.54 9.94Q74.54 9.65 74.44 9.52Q74.33 9.38 74.04 9.38L74.04 9.38Q73.30 9.38 72.42 10.13Q71.54 10.87 70.81 12.02Q70.08 13.18 69.77 14.30L69.77 14.30ZM78.86 18.50Q77.30 18.50 76.58 17.57Q75.86 16.63 75.86 15.36L75.86 15.36Q75.86 14.40 76.20 14.00Q76.54 13.61 76.93 13.44Q77.33 13.27 77.40 13.20L77.40 13.20Q78.94 11.52 79.78 9.72L79.78 9.72L79.78 9.43Q79.78 8.62 80.05 8.21Q80.33 7.80 80.71 7.80L80.71 7.80Q80.90 7.80 81.00 7.88Q81.10 7.97 81.10 8.11L81.10 8.11Q81.10 8.21 81.02 8.51Q80.95 8.81 80.95 9.17L80.95 9.17Q80.95 9.65 81.08 10.19Q81.22 10.73 81.50 11.59L81.50 11.59Q81.84 12.62 82.02 13.39Q82.20 14.16 82.20 14.95L82.20 14.95Q82.20 15.58 82.06 16.13L82.06 16.13Q82.92 15.98 83.66 15.35Q84.41 14.71 85.08 13.42L85.08 13.42L85.30 13.66Q84.86 14.90 83.98 15.62Q83.09 16.34 81.94 16.51L81.94 16.51Q81.58 17.50 80.76 18Q79.94 18.50 78.86 18.50L78.86 18.50ZM80.54 16.10Q80.64 15.48 80.64 14.98L80.64 14.98Q80.64 14.26 80.52 13.54Q80.40 12.82 80.16 11.88L80.16 11.88Q79.94 10.92 79.90 10.63L79.90 10.63Q78.67 12.65 77.57 13.75L77.57 13.75Q77.95 14.59 78.73 15.24Q79.51 15.89 80.54 16.10L80.54 16.10ZM78.91 17.66Q80.02 17.66 80.42 16.49L80.42 16.49Q79.46 16.30 78.67 15.73Q77.88 15.17 77.47 14.50L77.47 14.50Q76.94 14.52 76.94 15.34L76.94 15.34Q76.94 16.25 77.48 16.96Q78.02 17.66 78.91 17.66L78.91 17.66Z" transform="translate(51, 3.54)"></path></svg>